<svg xmlns="http://www.w3.org/2000/svg" xmlns:xlink="http://www.w3.org/1999/xlink" version="1.1" id="Layer_1" x="0px" y="0px" viewBox="0 0 135 50" enable-background="new 0 0 135 50" xml:space="preserve">
<g>
	<rect y="3.1" fill="#0033A0" width="135" height="43.9"/>
	<g>
		<path fill="#FFDB00" d="M126.4 27.3v0.2l0.3 0.6h0.3l-0.4-0.6c0.2 0 0.3-0.1 0.3-0.4c0-0.3-0.1-0.4-0.5-0.4h-0.1v0.2h0 c0.1 0 0.3 0.1 0.3 0.2C126.8 27.3 126.6 27.3 126.4 27.3"/>
		<path fill="#FFDB00" d="M126.4 26.4v-0.2c-0.7 0-1.2 0.5-1.2 1.2c0 0.7 0.6 1.2 1.2 1.2v-0.2c-0.6 0-1-0.4-1-1 C125.4 26.8 125.9 26.4 126.4 26.4"/>
		<path fill="#FFDB00" d="M126.4 28.4v0.2c0.7 0 1.2-0.5 1.2-1.2c0-0.7-0.6-1.2-1.2-1.2v0.2c0.5 0 1 0.4 1 1 C127.4 27.9 127 28.4 126.4 28.4"/>
	</g>
	<polygon fill="#FFDB00" points="125.9,26.7 125.9,28 126.1,28 126.1,27.5 126.4,27.5 126.4,27.3 126.1,27.3 126.1,26.8 126.4,26.8 126.4,26.7"/>
	<g>
		<path fill="#FFDB00" d="M31.5 8.4l0.2-0.1l12.6 0c-0.2 0.2-0.4 0.4-0.6 0.6c-0.7 0.8-0.6 0.9-1.2 3l-4.3 13.7 c-0.5 1.7-0.6 2.3-0.4 3.2H27.4c0.7-0.8 1.2-1.6 1.8-3.6l3.9-12.7l-0.2 0.2L22.1 28.8h-6.2l-1.2-16.2h-0.1l-3.6 11.5 c-0.7 2.3-0.8 3.6-0.6 4.6H5.6c0.6-1.1 0.8-1.4 1.5-3.7L11 12c0.7-2.3 0.6-2.7 0.2-3.7h12L24 19.4H24L31.5 8.4z"/>
		<path fill="#FFDB00" d="M50.9 23.9c-0.3 1 0.2 1.5 1.2 1.5h4c1 0 1.6-0.3 1.9-1.3l3.5-10.9c0.3-1-0.4-1.6-1.4-1.6h-3.9 c-1 0-1.6 0.3-1.9 1.3L50.9 23.9z M44.7 13.7c0.3-1 0.5-1.8 0.9-2.5c1.9-3.3 5-3 7-3h13.3c1.6 0 4.5 0.5 4.9 3.6 c0.1 0.8-0.2 1.5-0.5 2.7l-2.8 8.7c-0.4 1.3-0.8 2.5-1.4 3.3c-1.7 2.3-4.4 2.2-6.9 2.2H47.1c-3.6 0-6.3-2-5.2-5.7L44.7 13.7z"/>
		<path fill="#FFDB00" d="M79.5 23.9c-0.3 1 0.2 1.5 1.2 1.5h4c1 0 1.6-0.3 1.9-1.3l3.5-10.9c0.3-1-0.4-1.6-1.4-1.6h-3.9 c-1 0-1.6 0.3-1.9 1.3L79.5 23.9z M73.4 13.7c0.3-1 0.5-1.8 0.9-2.5c1.9-3.3 5-3 7-3h13.3c1.6 0 4.5 0.5 4.9 3.6 c0.1 0.8-0.2 1.5-0.5 2.7l-2.8 8.7c-0.4 1.3-0.8 2.5-1.4 3.3c-1.7 2.3-4.4 2.2-6.9 2.2H75.7c-3.6 0-6.3-2-5.2-5.7L73.4 13.7z"/>
		<path fill="#FFDB00" d="M126.7 16.8c-0.5 0.5-1.1 1.5-1.5 2.9l-1.5 5.1c-0.8 2.5-0.9 3.1-0.5 4h-7.4l0-1.8h-0.1 c-0.7 1.2-1.1 1.8-3.3 1.8h-9.3c-0.8 0-3.6-0.5-4.1-2.9c-0.2-0.8 0-1.7 0.4-2.9l2.7-8.6c0.4-1.4 0.8-2.7 1.3-3.5 c1.6-2.4 4.9-2.5 5.8-2.5h18.9l-0.5 4c-1-0.3-1.5-0.5-3-0.5l-11.1 0c-1 0-1.6 0.3-1.9 1.3L108.3 24c-0.3 1 0.2 1.4 1.2 1.4h2.6 c1.9 0 2.4-0.2 2.8-1.6l1.1-3.7l-3.2 0c-0.6 0-1.4 0.2-1.8 0.4l1.1-3.7L126.7 16.8z"/>
		<path fill="#FFFFFF" d="M8.6 35.5c0.1-0.4 0-0.8-0.3-0.8c-0.2 0-0.4 0.3-0.5 0.7c-0.2 1.9 2.3 0.9 1.8 4.3c-0.3 2.2-1 3.1-2.5 3.1 c-1.2 0-1.8-0.7-1.5-2.8l0-0.3h1.5l-0.1 0.4c-0.1 0.5 0 0.8 0.3 0.8c0.3 0 0.4-0.4 0.5-0.8c0.1-0.6 0-0.7-0.2-0.9 c-0.2-0.2-0.5-0.4-0.7-0.6c-0.8-0.7-1-1.2-0.8-2.6c0.2-1.3 0.5-2 0.9-2.5C7.4 33.2 7.9 33 8.5 33c1.6 0 1.7 1.3 1.5 2.9H8.5 L8.6 35.5z"/>
	</g>
	<polygon fill="#FFFFFF" points="12.6,33.2 16.3,33.2 16,35.4 15,35.4 14,42.6 12.5,42.6 13.4,35.4 12.3,35.4"/>
	<polygon fill="#FFFFFF" points="18.6,33.2 22,33.2 21.7,35.3 19.9,35.3 19.7,36.8 21.4,36.8 21.2,38.8 19.5,38.8 19.2,40.5 21.1,40.5 20.9,42.6 17.4,42.6"/>
	<polygon fill="#FFFFFF" points="24.5,33.2 28,33.2 27.7,35.3 25.8,35.3 25.7,36.8 27.4,36.8 27.1,38.8 25.4,38.8 25.2,40.5 27.1,40.5 26.8,42.6 23.3,42.6"/>
	<g>
		<path fill="#FFFFFF" d="M31.6 37.1h0.2c0.3 0 0.6-0.2 0.7-1.1c0.1-0.8-0.1-1-0.5-1h-0.2L31.6 37.1z M30.5 33.2h2.4 c1.1 0 1.4 0.9 1.2 2.5c-0.2 1.5-0.7 2.1-1.2 2.3v0c0.3 0 0.6 0.3 0.7 0.8c0.1 0.4 0 1.1-0.1 1.6l-0.1 0.8c-0.1 0.5-0.1 1-0.1 1.1 c0 0.1 0.1 0.2 0.1 0.3l0 0.1h-1.7c-0.1-0.2 0-0.9 0.1-1.4c0.1-0.5 0.1-0.9 0.1-1.4c0.1-0.8 0-1-0.3-1h-0.3l-0.5 3.7h-1.6 L30.5 33.2z"/>
	</g>
	<polygon fill="#FFFFFF" points="36.9,33.2 38.5,33.2 37.3,42.6 35.7,42.6"/>
	<polygon fill="#FFFFFF" points="43.6,33.2 45.1,33.2 43.9,42.6 42.2,42.6 42.1,36.8 42.1,36.8 41.3,42.6 39.9,42.6 41.1,33.2 42.8,33.2 42.9,38.9 42.9,38.9"/>
	<g>
		<path fill="#FFFFFF" d="M49.1 37.5h1.9l-0.7 5.1h-1.1l0.1-0.8h0c-0.4 0.8-0.8 1-1.3 1c-1.6 0-1.4-2.4-1-4.9 c0.3-2.7 0.7-4.9 2.7-4.9c1.6 0 1.7 1.3 1.5 3.2h-1.5l0-0.4c0.1-0.7 0-1.1-0.3-1.1c-0.4 0-0.5 0.6-0.6 1.2l-0.5 3.9 c-0.1 0.6-0.1 1.3 0.3 1.3c0.4 0 0.5-0.5 0.6-1.2l0.1-0.6h-0.5L49.1 37.5z"/>
		<path fill="#FFFFFF" d="M59.9 34.5c-0.3 0-0.4 0.3-0.5 0.6c0 0.2 0 0.4 0.1 0.6l0.2 0.5c0.1-0.1 0.5-0.6 0.6-1.1 C60.3 34.7 60.2 34.5 59.9 34.5 M59 39c-0.1 0.1-0.4 0.5-0.5 1c-0.1 0.5 0.2 0.8 0.4 0.8c0.2 0 0.4-0.1 0.5-0.3L59 39z M59.9 42.1 c-0.5 0.5-1.1 0.7-1.5 0.7c-1.4 0-1.5-1.6-1.4-2.6c0.2-1.3 0.7-2.2 1.4-2.7c-0.2-0.6-0.4-1.3-0.3-2.1c0.2-1.4 1-2.3 1.9-2.3 c1 0 1.7 0.6 1.5 2.2c-0.2 1.2-0.7 1.8-1.3 2.5l0.4 1.3c0.1-0.3 0.3-0.7 0.3-1h1.4c-0.2 1.1-0.6 2.2-1.1 2.8l0.6 1.8h-1.7 L59.9 42.1z"/>
		<path fill="#FFFFFF" d="M71.1 35.5c0.1-0.4 0-0.8-0.3-0.8c-0.2 0-0.4 0.3-0.5 0.7c-0.2 1.9 2.3 0.9 1.8 4.3 c-0.3 2.2-1 3.1-2.5 3.1c-1.2 0-1.8-0.7-1.5-2.8l0-0.3h1.5l-0.1 0.4c-0.1 0.5 0 0.8 0.3 0.8c0.3 0 0.4-0.4 0.5-0.8 c0.1-0.6 0-0.7-0.2-0.9c-0.2-0.2-0.5-0.4-0.7-0.6c-0.8-0.7-1-1.2-0.8-2.6c0.2-1.3 0.5-2 0.9-2.5C70 33.2 70.4 33 71 33 c1.6 0 1.7 1.3 1.5 2.9H71L71.1 35.5z"/>
		<path fill="#FFFFFF" d="M77.7 33.2h1.6l-0.8 6.2c-0.3 2.3-1 3.4-2.4 3.4c-1.5 0-1.8-1-1.5-3.4l0.8-6.2H77l-0.9 6.7 C76 40.7 76.1 41 76.4 41c0.3 0 0.4-0.3 0.5-1.1L77.7 33.2z"/>
		<path fill="#FFFFFF" d="M83.7 35.5c0.1-0.4 0-0.8-0.3-0.8c-0.2 0-0.4 0.3-0.5 0.7c-0.2 1.9 2.3 0.9 1.8 4.3 c-0.3 2.2-1 3.1-2.5 3.1c-1.2 0-1.8-0.7-1.5-2.8l0-0.3h1.5l-0.1 0.4c-0.1 0.5 0 0.8 0.3 0.8c0.3 0 0.4-0.4 0.5-0.8 c0.1-0.6 0-0.7-0.2-0.9c-0.2-0.2-0.5-0.4-0.7-0.6c-0.8-0.7-1-1.2-0.8-2.6c0.2-1.3 0.5-2 0.9-2.5c0.3-0.3 0.8-0.6 1.4-0.6 c1.6 0 1.7 1.3 1.5 2.9h-1.5L83.7 35.5z"/>
		<path fill="#FFFFFF" d="M89.2 37.1h0.2c0.3 0 0.5-0.1 0.7-1c0.1-0.6 0-1-0.4-1h-0.2L89.2 37.1z M88.1 33.2h2.1 c1.2 0 1.7 0.9 1.5 2.9c-0.3 2.1-1.2 2.9-2.2 2.9h-0.5l-0.5 3.6h-1.6L88.1 33.2z"/>
	</g>
	<polygon fill="#FFFFFF" points="94.5,33.2 97.9,33.2 97.6,35.3 95.8,35.3 95.6,36.8 97.3,36.8 97.1,38.8 95.4,38.8 95.1,40.5 97,40.5 96.8,42.6 93.3,42.6"/>
	<polygon fill="#FFFFFF" points="103,33.2 104.5,33.2 103.3,42.6 101.6,42.6 101.5,36.8 101.5,36.8 100.7,42.6 99.3,42.6 100.5,33.2 102.2,33.2 102.3,38.9 102.3,38.9"/>
	<g>
		<path fill="#FFFFFF" d="M109 35.5c0.1-0.4 0-0.8-0.3-0.8c-0.2 0-0.4 0.3-0.5 0.7c-0.2 1.9 2.3 0.9 1.8 4.3c-0.3 2.2-1 3.1-2.5 3.1 c-1.2 0-1.8-0.7-1.5-2.8l0-0.3h1.5l-0.1 0.4c-0.1 0.5 0 0.8 0.3 0.8c0.3 0 0.4-0.4 0.5-0.8c0.1-0.6 0-0.7-0.2-0.9 c-0.2-0.2-0.5-0.4-0.7-0.6c-0.8-0.7-1-1.2-0.8-2.6c0.2-1.3 0.5-2 0.9-2.5c0.3-0.3 0.8-0.6 1.4-0.6c1.6 0 1.7 1.3 1.5 2.9H109 L109 35.5z"/>
	</g>
	<polygon fill="#FFFFFF" points="113.3,33.2 114.9,33.2 113.7,42.6 112.1,42.6"/>
	<g>
		<path fill="#FFFFFF" d="M119.1 34.7c-0.3 0-0.5 0.4-0.8 3.2c-0.4 2.8-0.3 3.2 0 3.2c0.3 0 0.5-0.4 0.8-3.2 C119.5 35.1 119.5 34.7 119.1 34.7 M119.3 33c2 0 1.8 2 1.4 4.9c-0.4 3-0.6 4.9-2.7 4.9c-2 0-1.8-1.9-1.4-4.9 C117 35 117.3 33 119.3 33"/>
	</g>
	<polygon fill="#FFFFFF" points="126.4,33.2 127.9,33.2 126.7,42.6 125,42.6 124.8,36.8 124.8,36.8 124.1,42.6 122.6,42.6 123.8,33.2 125.6,33.2 125.6,38.9 125.6,38.9"/>
</g>
</svg>
