<svg xmlns="http://www.w3.org/2000/svg" xmlns:xlink="http://www.w3.org/1999/xlink" version="1.1" id="Layer_1" x="0px" y="0px" viewBox="0 0 135 50" enable-background="new 0 0 135 50" xml:space="preserve">
<g>
	<path fill-rule="evenodd" clip-rule="evenodd" fill="#FFFFFF" d="M5.7 39.3c0 0 6.5 9.2 20.9 6.3c13.7-2.8 12-25.2 12-25.2 l-2.7-9.7L4.3 25.6L5.7 39.3z"/>
	<path fill-rule="evenodd" clip-rule="evenodd" fill="#EF3E42" d="M44.8 26.9c0-0.3 0.1-0.6 0.1-0.9c-2.1-0.4-4.1-1.4-6-3l3.2-4.7 c0.9 1.1 1.9 1.9 3 2.4c-0.1-0.8-0.2-1.5-0.3-2.2c-2-1.1-3-2.5-3-4.6c0-0.7 0.1-1.4 0.3-1.9c-3.4-5.1-9.5-8.2-17.2-8.2 c-7.2 0-13.5 2.9-17.8 7.9C3.4 16 1.5 21.2 1.5 27.2c0 5.1 2 9.9 5.3 13.2l0.1-0.1l13.4-13.6L5 26.4l30.3-15l-8.2 9.5l9.8 0.9 l-12.1 24c5.7-0.6 10.5-3.1 14.2-7.1l2.2-11.9H44.8z"/>
	<g>
		<path fill-rule="evenodd" clip-rule="evenodd" fill="#231F20" d="M123.1 27.2h-0.2h-6.6L113 44.9h6.4l1.2-6.4l1.9 6.4h0.3h6.2 l-2.6-6.8c2.8-0.6 4.4-2.6 4.4-5.6C130.9 29.1 128.3 27.2 123.1 27.2z M122.9 34.9c-0.3 0.1-0.7 0.1-1.2 0.1c-0.2 0-0.3 0-0.5 0 l0.6-3.4c0.1 0 0.3 0 0.4 0c0.2 0 0.5 0 0.7 0c1.1 0.1 1.7 0.6 1.7 1.5C124.6 34.1 124 34.7 122.9 34.9z"/>
		<path fill-rule="evenodd" clip-rule="evenodd" fill="#231F20" d="M47.5 21.5c-1.6 0-3.2-0.9-4.6-2.7l-3.2 4.6 c2.4 2.2 5.2 3.2 7.9 3.2c4.5 0 7.6-2.9 7.6-6.5c0-2.5-1.2-3.8-3.8-5c-1.4-0.6-2.3-0.8-2.3-1.6c0-0.5 0.4-0.8 1-0.8 c1 0 2.2 0.6 3.6 1.9l2.5-4.3c-1.7-1.5-3.9-2.3-6.4-2.3c-4.5 0-7.3 2.7-7.3 6.3c0 2.4 1.4 4 4.3 5.2c1.2 0.5 1.8 0.7 1.8 1.3 C48.7 21.2 48.3 21.5 47.5 21.5z"/>
		<polygon fill-rule="evenodd" clip-rule="evenodd" fill="#231F20" points="68,26.2 68.9,21.4 62.6,21.4 62.9,19.5 68.4,19.5 69.2,15 63.7,15 64.1,13.3 69.9,13.3 70.7,8.5 58.6,8.5 55.3,26.2"/>
		<path fill-rule="evenodd" clip-rule="evenodd" fill="#231F20" d="M75.6 26.2l1-2.4h2.9h1.4l0.1 2.4h6.3L84.9 8.5h-5.5h-1.5 l-9.2 17.7H75.6z M79.4 17l0.1-0.2c0.2-0.5 0.5-1.4 0.9-2.6c0 0.5 0 0.9 0 1.3c0 0.9 0 1.7 0.1 2.4l0.1 1.9h-1.1h-1.1L79.4 17z"/>
		<polygon fill-rule="evenodd" clip-rule="evenodd" fill="#231F20" points="100.8,20.8 95.4,20.8 97.7,8.5 91.1,8.5 87.9,26.2 99.8,26.2"/>
		<polygon fill-rule="evenodd" clip-rule="evenodd" fill="#231F20" points="114.8,21.4 108.5,21.4 108.9,19.5 114.3,19.5 115.1,15 109.7,15 110,13.3 115.8,13.3 116.7,8.5 104.5,8.5 101.2,26.2 113.9,26.2"/>
		<path fill-rule="evenodd" clip-rule="evenodd" fill="#231F20" d="M120.5 26.2c1.5 0 2.9-0.1 4.1-0.3c2-0.3 3.7-0.9 5.1-2.1 c2.4-1.8 3.7-4.5 3.7-7.5c0-3.2-1.5-5.6-4.3-7c-1-0.5-2.5-0.8-4.5-0.9c-0.5 0-1.1 0-1.7 0h-4.8l-3.3 17.7H120.5z M123.6 13.8 c0.1 0 0.1 0 0.1 0c0.3 0 0.6 0 0.9 0.1c1.5 0.3 2.3 1.4 2.3 2.9c0 1.7-0.8 3-2.3 3.7c-0.6 0.3-1.4 0.4-2.3 0.4c0 0 0 0-0.1 0 L123.6 13.8z"/>
		<path fill-rule="evenodd" clip-rule="evenodd" fill="#231F20" d="M48.9 27.4h-0.2h-6.6l-3.3 17.7h6.5l0.9-5.4h2.5h0 c5.1 0 8-2.5 8-6.6C56.7 29.3 54.1 27.4 48.9 27.4z M48.7 34.9C48.3 35 48 35 47.5 35c-0.1 0-0.3 0-0.5 0l0.6-3c0.1 0 0.2 0 0.3 0 c0.3 0 0.5 0 0.8 0c1.1 0.1 1.6 0.5 1.6 1.3C50.3 34.2 49.8 34.7 48.7 34.9z"/>
		<path fill-rule="evenodd" clip-rule="evenodd" fill="#231F20" d="M67 26.9c-0.2 0-0.5 0-0.7 0c-2.9 0.2-5.4 1.4-7.2 3.4 c-1.6 1.9-2.4 4.2-2.4 6.9c0 2.5 1 4.8 2.7 6.2c1.6 1.4 3.7 2.1 6.2 2.1c0.2 0 0.5 0 0.7 0c2.9-0.2 5.4-1.4 7.2-3.5 c1.6-1.8 2.4-4.2 2.4-6.8C76 30.4 72.4 26.9 67 26.9z M66.4 39.7c-0.1 0-0.2 0-0.3 0c-1.8 0-3-1.2-3-3.1c0-2 1.4-3.6 3.2-3.7 c0.1 0 0.2 0 0.3 0c1.7 0 3 1.2 3 3C69.6 37.8 68.2 39.5 66.4 39.7z"/>
		<path fill-rule="evenodd" clip-rule="evenodd" fill="#231F20" d="M95.4 27.4l-2.5 6.3c-0.3 0.8-0.7 1.9-1.1 3.4l-0.6-9.7h-5.1 l-3.9 9.8c0-0.6 0.1-1.3 0.1-1.9c0-0.8 0-1.6-0.1-2.5L82 27.4h-6.2l1.4 17.7h6.4l2.7-6.3c0.5-1.1 0.8-2.3 1.1-3.4l0.6 9.8h6.5 l7.6-17.7H95.4z"/>
		<polygon fill-rule="evenodd" clip-rule="evenodd" fill="#231F20" points="106.8,38.4 112.2,38.4 113.1,33.9 107.6,33.9 107.9,32.2 113.7,32.2 114.6,27.4 102.4,27.4 99.1,45.1 111.9,45.1 112.7,40.3 106.4,40.3"/>
	</g>
	<path fill-rule="evenodd" clip-rule="evenodd" fill="#231F20" d="M131.6 44.6c-0.2 0.1-0.3 0.2-0.6 0.3v-0.2 c0.1-0.1 0.3-0.1 0.5-0.3c0.2-0.2 0.3-0.5 0.3-0.7c0-0.3-0.1-0.5-0.3-0.7c-0.1-0.1-0.3-0.2-0.5-0.3v-0.1c0.2 0 0.4 0.1 0.6 0.3 c0.2 0.2 0.4 0.5 0.4 0.8C132 44.1 131.8 44.4 131.6 44.6L131.6 44.6z M131 44.1c0 0.1 0 0.1 0 0.2v0.1v0c0 0 0 0 0 0l0 0h0.2l0 0 c0 0 0 0 0 0c0 0 0-0.1 0-0.1v-0.1c0-0.1 0-0.1-0.1-0.2c0-0.1-0.1-0.1-0.2-0.1V44.1L131 44.1z M131 43.8c0.1 0 0.1 0 0.1 0 c0.1-0.1 0.1-0.2 0.1-0.3c0-0.2-0.1-0.3-0.2-0.3c0 0-0.1 0-0.1 0v0.2c0 0 0 0.1 0 0.2c0 0 0 0.1 0 0.1V43.8z M131 45 c-0.1 0-0.2 0-0.3 0v-0.2c0.1 0 0.2 0 0.3 0V45L131 45z M131 42.8c-0.1 0-0.2 0-0.3 0v-0.1c0.1 0 0.2 0 0.3 0V42.8L131 42.8z M131 43.2v0.2c0 0 0 0 0 0c-0.1 0-0.1 0-0.2 0v-0.2C130.9 43.1 130.9 43.1 131 43.2L131 43.2z M131 43.6v0.2c0 0-0.1 0-0.1 0h0.1 v0.2c0 0-0.1-0.1-0.1-0.1c0 0-0.1 0-0.2 0v-0.2c0.1 0 0.1 0 0.2 0C131 43.7 131 43.7 131 43.6L131 43.6z M130.5 45 c0.1 0 0.1 0 0.2 0l0 0v-0.2l0 0c-0.1 0-0.2 0-0.2 0V45L130.5 45z M130.5 43.9h0.2c0 0 0 0 0.1 0v-0.2h0h-0.2V43.9L130.5 43.9z M130.5 43.3h0.2c0 0 0 0 0.1 0v-0.2c0 0 0 0 0 0h-0.2V43.3L130.5 43.3z M130.5 42.8c0.1 0 0.1 0 0.2 0l0 0v-0.1l0 0 c-0.1 0-0.2 0-0.2 0V42.8z M130.5 42.6v0.2c-0.2 0-0.3 0.1-0.5 0.3c-0.2 0.2-0.3 0.5-0.3 0.7c0 0.3 0.1 0.5 0.3 0.7 c0.1 0.1 0.3 0.2 0.5 0.3V45c-0.2 0-0.5-0.2-0.6-0.3c-0.2-0.2-0.3-0.5-0.3-0.9c0-0.3 0.1-0.6 0.4-0.8 C130.1 42.8 130.3 42.7 130.5 42.6L130.5 42.6z M130.5 43.1h-0.2v1.3h0.2v-0.5v-0.2v-0.5V43.1z"/>
</g>
</svg>
