<svg xmlns="http://www.w3.org/2000/svg" xmlns:xlink="http://www.w3.org/1999/xlink" version="1.1" id="Layer_1" x="0px" y="0px" viewBox="0 0 135 50" enable-background="new 0 0 135 50" xml:space="preserve">
<g>
	<polygon fill-rule="evenodd" clip-rule="evenodd" fill="#EC1C24" points="17.5,0 67.5,0 67.5,50 17.5,50 17.5,0"/>
	<polygon fill-rule="evenodd" clip-rule="evenodd" fill="#231F20" points="117.5,0 67.5,0 67.5,50 117.5,50 117.5,0"/>
	<polygon fill-rule="evenodd" clip-rule="evenodd" fill="#FFFFFF" points="67.5,39.3 20.5,44.8 20.5,5.2 67.5,12 114.5,5.2 114.5,44.8 67.5,39.3"/>
	<path fill-rule="evenodd" clip-rule="evenodd" fill="#231F20" d="M33.9 27.2c0 0.3-0.1 0.7-0.1 1.1c-0.1 0.4-0.2 0.9-0.3 1.3 c-0.3 0.9-0.8 1.7-1.5 2.4c-0.7 0.7-1.7 1.1-3.1 1.1l-0.1 0c-0.1 0-0.3 0-0.4 0c-0.1 0-0.3 0-0.4 0c-1.2-0.2-2.2-0.8-3.2-1.9 c-1-1.1-1.5-3.1-1.5-6c0-2.5 0.4-4.5 1.3-6.1c0.9-1.6 2.2-2.4 4.1-2.4h0.1c1.4 0 2.4 0.3 3.1 1c0.7 0.7 1.2 1.5 1.5 2.3 c0.1 0.4 0.3 0.8 0.3 1.2c0.1 0.4 0.1 0.8 0.1 1.1h-0.1h-2.6c0-0.1 0-0.3-0.1-0.5c0-0.2-0.1-0.4-0.2-0.7c-0.1-0.4-0.4-0.7-0.7-1 c-0.3-0.3-0.7-0.5-1.3-0.5c-0.9 0-1.5 0.5-1.9 1.5c-0.4 1-0.6 2.2-0.6 3.8c0 0.2 0 0.5 0 1c0 0.5 0.1 1 0.2 1.5 c0.2 0.6 0.4 1.2 0.8 1.7c0.4 0.5 0.9 0.8 1.6 0.8c0.6 0 1-0.2 1.3-0.6c0.3-0.4 0.5-0.8 0.7-1.2c0.1-0.2 0.1-0.4 0.2-0.6 c0-0.2 0.1-0.4 0.1-0.6h0.1H33.9L33.9 27.2z"/>
	<polygon fill-rule="evenodd" clip-rule="evenodd" fill="#231F20" points="38.3,32.7 38.1,32.7 35.5,32.7 35.5,17.3 35.7,17.3 38.3,17.3 38.3,23.1 42.2,23.1 42.2,17.3 42.3,17.3 45,17.3 45,32.7 44.8,32.7 42.2,32.7 42.2,26.1 38.3,26.1 38.3,32.7"/>
	<path fill-rule="evenodd" clip-rule="evenodd" fill="#231F20" d="M53 17.3l4.2 15.5H57h-2.8l-0.7-2.9h-3.9l-0.7 2.9h-0.1H46 l4.2-15.5h0.1H53L53 17.3z M52.9 27.2l-1.4-5.6l-1.4 5.6H52.9L52.9 27.2z"/>
	<polygon fill-rule="evenodd" clip-rule="evenodd" fill="#231F20" points="61,22.1 61,32.7 60.8,32.7 58.2,32.7 58.2,17.3 58.3,17.3 62,17.3 64.6,27.6 67.2,17.3 67.3,17.3 71,17.3 71,32.7 70.9,32.7 68.2,32.7 68.2,22.1 65.6,32.7 65.4,32.7 63.6,32.7 61,22.1"/>
	<path fill-rule="evenodd" clip-rule="evenodd" fill="#231F20" d="M78.7 17.3c0.1 0 0.1 0 0.2 0c0.1 0 0.1 0 0.2 0 c0.9 0.1 1.8 0.4 2.5 1.1c0.8 0.7 1.1 2 1.1 3.9c0 1.5-0.2 2.7-0.7 3.4c-0.5 0.7-1 1.2-1.5 1.4c-0.4 0.2-0.7 0.3-1.1 0.3 c-0.3 0-0.6 0.1-0.8 0.1h-2.5v5.3H76h-2.6V17.3h0.1H78.7L78.7 17.3z M76.2 24.4h1.9c0.6 0 1-0.1 1.4-0.4c0.3-0.3 0.5-0.9 0.5-1.7 c0-0.8-0.2-1.3-0.5-1.6c-0.3-0.3-0.8-0.4-1.4-0.4h-1.9V24.4L76.2 24.4z"/>
	<polygon fill-rule="evenodd" clip-rule="evenodd" fill="#231F20" points="87.2,17.3 87.2,32.7 87,32.7 84.4,32.7 84.4,17.3 84.6,17.3 87.2,17.3"/>
	<path fill-rule="evenodd" clip-rule="evenodd" fill="#231F20" d="M94.7 33.2c-2 0-3.5-0.9-4.3-2.5C89.5 29 89 27.1 89 25 c0-2.1 0.4-4 1.3-5.7c0.9-1.7 2.3-2.5 4.3-2.5h0.1c2 0 3.5 0.8 4.3 2.5c0.8 1.7 1.3 3.6 1.3 5.7c0 2.1-0.4 4-1.3 5.7 c-0.8 1.7-2.3 2.5-4.3 2.5L94.7 33.2L94.7 33.2z M94.7 30.2c0.8 0 1.3-0.3 1.7-0.9c0.4-0.5 0.6-1.2 0.8-1.8c0.1-0.5 0.2-1 0.2-1.5 c0-0.5 0-0.8 0-1c0-1.6-0.2-2.7-0.5-3.4c-0.3-0.7-0.7-1.2-1.1-1.5c-0.2-0.1-0.4-0.2-0.6-0.3c-0.2 0-0.4-0.1-0.5-0.1 c-0.1 0-0.3 0-0.5 0.1c-0.2 0-0.4 0.1-0.6 0.3c-0.4 0.3-0.8 0.7-1.1 1.5C92.2 22.3 92 23.5 92 25c0 0.3 0 0.6 0 0.9 c0 0.3 0.1 0.7 0.1 1.1c0.1 0.8 0.4 1.5 0.7 2.1C93.3 29.8 93.9 30.1 94.7 30.2L94.7 30.2z"/>
	<polygon fill-rule="evenodd" clip-rule="evenodd" fill="#231F20" points="105.1,32.7 104.9,32.7 102.3,32.7 102.3,17.3 102.4,17.3 105.1,17.3 109.4,26.6 109.4,17.3 109.5,17.3 112.2,17.3 112.2,32.7 112,32.7 109.3,32.7 105.1,23.3 105.1,32.7"/>
</g>
</svg>
