<svg xmlns="http://www.w3.org/2000/svg" xmlns:xlink="http://www.w3.org/1999/xlink" version="1.1" id="Layer_1" x="0px" y="0px" viewBox="0 0 135 50" enable-background="new 0 0 135 50" xml:space="preserve">
<g>
	<path fill-rule="evenodd" clip-rule="evenodd" fill="#2B7EB1" d="M128.9 34.6c0-1 0.8-1.8 1.8-1.8c1 0 1.9 0.8 1.9 1.8 c0 1.1-0.9 1.9-1.9 1.9C129.7 36.5 128.9 35.7 128.9 34.6L128.9 34.6z M130.7 36.9c1.3 0 2.3-1 2.3-2.3c0-1.2-1-2.2-2.3-2.2 c-1.2 0-2.3 1-2.3 2.2C128.4 35.9 129.5 36.9 130.7 36.9L130.7 36.9z M130.3 34.8h0.4l0.7 1.1h0.4l-0.7-1.1c0.4 0 0.7-0.2 0.7-0.7 c0-0.5-0.3-0.7-0.9-0.7h-1v2.5h0.4V34.8L130.3 34.8z M130.3 34.5v-0.8h0.5c0.3 0 0.6 0 0.6 0.4c0 0.4-0.3 0.4-0.7 0.4H130.3 L130.3 34.5z"/>
	<path fill-rule="evenodd" clip-rule="evenodd" fill="#2B7EB1" d="M75.6 13.5c2.2 0 3.6 0.9 3.9 2.5c0.6 3.5 1.7 9.8 1.7 9.8 l5.1-12.3h5.4l-9.4 23.4h-5.4c-1.3 0-2.6-0.7-3-2C73.1 31.9 72 26 72 26l-4.4 10.9h-5.7l9.4-23.4C71.4 13.5 73.5 13.5 75.6 13.5 L75.6 13.5z"/>
	<path fill-rule="evenodd" clip-rule="evenodd" fill="#2B7EB1" d="M59.4 36.9h-9l2-5.1l-6.9 0.1l-4.8 5h-7.3 c0 0 19.3-20.3 20.8-21.8c1.5-1.6 3.7-1.6 4.7-1.6h9.9L59.4 36.9L59.4 36.9z M57.2 19.7l-8 8.2h4.8L57.2 19.7L57.2 19.7z"/>
	<path fill-rule="evenodd" clip-rule="evenodd" fill="#2B7EB1" d="M110 18h-8.3c-0.6 0-1 0.6-1.2 1.3l-4.6 12 c-0.2 0.5 0.2 1.1 0.6 1.1h7.7l-1.8 4.5H88.9c-1.2 0-3.2-2.2-2.5-4.2l6.6-16.9c0.6-1.4 1.6-2.3 3.4-2.3h15.4L110 18L110 18z"/>
	<path fill-rule="evenodd" clip-rule="evenodd" fill="#2B7EB1" d="M131.2 13.5c1.4 0 2.9 2.3 2.1 4.4l-6.6 16.8 c-0.5 1.4-1.6 2.2-3.3 2.2h-15.5c-1.7 0-3.3-2.8-2.4-4.8l6.2-16c0.4-1.4 2.3-2.7 3.9-2.7H131.2L131.2 13.5z M123.4 18h-2.5 c-0.4 0-0.9 0.3-1 0.8l-5 12.5c-0.1 0.4-0.1 1.1 0.5 1.1h2.4c0.7 0 0.9 0 1.1-0.5l5.1-12.8C124.3 18.4 123.8 18 123.4 18L123.4 18z "/>
	<path fill-rule="evenodd" clip-rule="evenodd" fill="#2B7EB1" d="M30.2 36.9c-2-1.5-4.4-2.2-6.9-2.2c-2.5 0-4.8 0.8-6.6 2.2 C11.2 31.5 6.6 25.8 1.5 20.3c11.7-9.9 32-9.2 43.6 0L30.2 36.9L30.2 36.9z"/>
</g>
</svg>
