<svg xmlns="http://www.w3.org/2000/svg" xmlns:xlink="http://www.w3.org/1999/xlink" version="1.1" id="Layer_1" x="0px" y="0px" viewBox="0 0 135 50" enable-background="new 0 0 135 50" xml:space="preserve">
<g>
	<path fill-rule="evenodd" clip-rule="evenodd" fill="#FFFFFF" d="M6.2 40.9c0 0 7.3 10.3 23.3 7c15.2-3.2 13.3-28 13.3-28l-3-10.7 L4.6 25.7L6.2 40.9z"/>
	<path fill-rule="evenodd" clip-rule="evenodd" fill="#EF3E42" d="M49.8 26.2c0-0.2 0.1-0.4 0.1-0.7c-2.6-0.3-5.2-1.6-7.5-3.6 l3.7-5.4c1.2 1.5 2.6 2.4 3.9 2.9c-0.1-0.9-0.3-1.7-0.5-2.6c-2.6-1.3-3.9-3-3.9-5.5c0-0.7 0.1-1.4 0.3-2c-3.9-5-10.3-8-18.4-8 c-8 0-15.1 3.2-19.8 8.7c-4.1 4.8-6.1 10.6-6.1 17.2c0 5.8 2.2 11 5.8 14.7L7.4 42l15-15.1l-17-0.3L39 9.8l-9.1 10.6l10.9 1 L27.4 48.2c4.9-0.6 9.2-2.3 12.9-5.1l3.1-16.8H49.8z"/>
	<g>
		<path fill-rule="evenodd" clip-rule="evenodd" fill="#231F20" d="M52.2 20.4c-1.8 0-3.8-1-5.4-3.1l-3.7 5.4c2.8 2.5 6 3.8 9.2 3.8 c5.3 0 8.9-3.3 8.9-7.5c0-2.9-1.4-4.5-4.4-5.8c-1.6-0.7-2.6-1-2.6-1.8c0-0.5 0.5-0.9 1.2-0.9c1.2 0 2.5 0.7 4.2 2.2l2.9-5.1 c-2-1.7-4.5-2.6-7.4-2.6c-5.2 0-8.5 3.1-8.5 7.3c0 2.8 1.7 4.6 5 6c1.4 0.6 2.2 0.8 2.2 1.4C53.5 20 53.1 20.4 52.2 20.4z"/>
		<path fill-rule="evenodd" clip-rule="evenodd" fill="#231F20" d="M68.4 25.9l1.2-6.3h2.9h0.1c6 0 9.3-2.9 9.3-7.6 c0-4.4-3.1-6.7-9.1-6.7h-0.2h-7.7l-3.8 20.6H68.4z M71.2 10.7c0.1 0 0.2 0 0.3 0c0.3 0 0.6 0 0.9 0c1.3 0.1 1.9 0.6 1.9 1.5 c0 1-0.6 1.7-1.9 1.9c-0.3 0.1-0.8 0.1-1.3 0.1c-0.2 0-0.3 0-0.5 0L71.2 10.7z"/>
		<polygon fill-rule="evenodd" clip-rule="evenodd" fill="#231F20" points="94.7,25.9 95.7,20.3 88.4,20.3 88.8,18.1 95.1,18.1 96.1,12.9 89.8,12.9 90.1,10.8 96.8,10.8 97.9,5.2 83.7,5.2 79.9,25.9"/>
		<polygon fill-rule="evenodd" clip-rule="evenodd" fill="#231F20" points="104.8,20.3 105.2,18.1 111.5,18.1 112.5,12.9 106.2,12.9 106.5,10.8 113.2,10.8 114.2,5.2 100.1,5.2 96.3,25.9 111.1,25.9 112.1,20.3"/>
		<path fill-rule="evenodd" clip-rule="evenodd" fill="#231F20" d="M128.5 6.3c-1.2-0.6-3-0.9-5.3-1c-0.6 0-1.2 0-1.9 0h-5.6 l-3.8 20.6h6.5c1.8 0 3.4-0.1 4.8-0.3c2.3-0.3 4.3-1.1 6-2.4c2.7-2 4.3-5.2 4.3-8.7C133.5 10.8 131.7 7.9 128.5 6.3z M123.2 19.2 c-0.7 0.3-1.6 0.5-2.6 0.5c0 0-0.1 0-0.1 0l1.5-8.2c0.1 0 0.1 0 0.2 0c0.4 0 0.7 0 1 0.1c1.7 0.3 2.7 1.6 2.7 3.4 C125.9 17 125 18.5 123.2 19.2z"/>
		<path fill-rule="evenodd" clip-rule="evenodd" fill="#231F20" d="M52.2 26.9H52h-7.7l-3.8 20.6h7.5l1.2-6.3H52h0 c6 0 9.3-2.9 9.3-7.6C61.3 29.1 58.3 26.9 52.2 26.9z M52 35.7c-0.4 0.1-0.8 0.1-1.3 0.1c-0.2 0-0.3 0-0.6 0l0.7-3.5 c0.1 0 0.2 0 0.3 0c0.3 0 0.6 0 0.9 0c1.3 0.1 1.9 0.6 1.9 1.5C53.8 34.9 53.2 35.5 52 35.7z"/>
		<path fill-rule="evenodd" clip-rule="evenodd" fill="#231F20" d="M72 26.9h-0.3h-7.7l-3.8 20.6h7.5l1.4-7.5l2.2 7.5h0.4H79l-3-7.9 c3.2-0.7 5.1-3.1 5.1-6.5C81.1 29.1 78 26.9 72 26.9z M71.7 35.9c-0.4 0.1-0.9 0.1-1.4 0.1c-0.2 0-0.4 0-0.6 0l0.8-4 c0.1 0 0.3 0 0.4 0c0.3 0 0.5 0 0.7 0c1.4 0.1 1.9 0.7 1.9 1.7C73.6 35 73 35.7 71.7 35.9z"/>
		<path fill-rule="evenodd" clip-rule="evenodd" fill="#231F20" d="M93.4 26.4c-0.3 0-0.5 0-0.8 0c-3.4 0.2-6.3 1.6-8.4 4 c-1.9 2.2-2.8 4.9-2.8 8c0 2.9 1.2 5.5 3.1 7.2c1.9 1.6 4.3 2.4 7.3 2.4c0.2 0 0.5 0 0.8 0c3.4-0.2 6.3-1.5 8.4-4 c1.9-2.2 2.8-4.9 2.8-8C103.8 30.4 99.6 26.4 93.4 26.4z M92.6 41.2c-0.1 0-0.2 0-0.3 0c-2.1 0-3.4-1.4-3.4-3.6 c0-2.4 1.5-4.2 3.8-4.3c0.1 0 0.2 0 0.3 0c1.9 0 3.4 1.4 3.4 3.5C96.3 39.1 94.7 41 92.6 41.2z"/>
	</g>
	<path fill-rule="evenodd" clip-rule="evenodd" fill="#231F20" d="M105 47.7c-0.2 0.2-0.4 0.3-0.6 0.3v-0.2c0.2-0.1 0.3-0.2 0.5-0.3 c0.2-0.2 0.3-0.5 0.3-0.8c0-0.3-0.1-0.6-0.3-0.8c-0.2-0.2-0.3-0.3-0.5-0.3v-0.2c0.2 0.1 0.5 0.2 0.6 0.4c0.3 0.2 0.4 0.5 0.4 0.9 C105.5 47.2 105.3 47.5 105 47.7L105 47.7z M104.4 47.1c0 0.1 0 0.2 0 0.2v0.1v0c0 0 0 0 0 0l0 0h0.3l0 0c0 0 0 0 0 0 c0 0 0-0.1 0-0.1v-0.1c0-0.1 0-0.2-0.1-0.2c0-0.1-0.1-0.1-0.2-0.2V47.1L104.4 47.1z M104.4 46.8c0.1 0 0.1 0 0.2 0 c0.1-0.1 0.2-0.2 0.2-0.3c0-0.2-0.1-0.3-0.2-0.4c0 0 0 0-0.1 0v0.2c0 0 0 0.1 0 0.2c0 0 0 0.1 0 0.1V46.8z M104.4 48.1 c-0.1 0-0.2 0-0.3 0v-0.2c0.1 0 0.2 0 0.3 0V48.1L104.4 48.1z M104.4 45.6c-0.1 0-0.2 0-0.3 0v-0.2c0.1 0 0.2 0 0.3 0V45.6 L104.4 45.6z M104.4 46.1v0.2l0 0c-0.1 0-0.2 0-0.3 0V46C104.2 46 104.3 46 104.4 46.1L104.4 46.1z M104.4 46.6v0.2c0 0 0 0-0.1 0 c0 0 0 0 0.1 0v0.3c0 0-0.1-0.1-0.1-0.1c0 0-0.1 0-0.2 0v-0.2c0.1 0 0.2 0 0.2 0C104.3 46.7 104.4 46.7 104.4 46.6L104.4 46.6z M103.8 48.1c0.1 0 0.2 0 0.3 0l0 0v-0.2l0 0c-0.1 0-0.2 0-0.3 0V48.1L103.8 48.1z M103.8 46.9h0.2c0 0 0 0 0.1 0v-0.2h0h-0.2V46.9 L103.8 46.9z M103.8 46.2h0.2c0 0 0 0 0.1 0V46c0 0 0 0 0 0h-0.2V46.2L103.8 46.2z M103.8 45.6c0.1 0 0.2 0 0.3 0l0 0v-0.2l0 0 c-0.1 0-0.2 0-0.3 0V45.6z M103.8 45.5v0.2c-0.2 0-0.4 0.2-0.5 0.3c-0.2 0.2-0.3 0.5-0.3 0.8c0 0.3 0.1 0.6 0.3 0.8 c0.2 0.2 0.3 0.3 0.5 0.3v0.2c-0.3 0-0.5-0.2-0.7-0.3c-0.2-0.3-0.4-0.6-0.4-1c0-0.3 0.2-0.7 0.4-0.9 C103.4 45.6 103.6 45.5 103.8 45.5L103.8 45.5z M103.8 46h-0.3v1.5h0.3v-0.6v-0.2v-0.5V46z"/>
</g>
</svg>
