<svg xmlns="http://www.w3.org/2000/svg" xmlns:xlink="http://www.w3.org/1999/xlink" version="1.1" id="Layer_1" x="0px" y="0px" viewBox="0 0 135 50" enable-background="new 0 0 135 50" xml:space="preserve">
<g>
	<path fill-rule="evenodd" clip-rule="evenodd" fill="#FFFFFF" d="M5.8 39.2c0 0 6.6 9.3 21.1 6.3c13.8-2.9 12.1-25.4 12.1-25.4 l-2.7-9.7l-31.9 15L5.8 39.2L5.8 39.2z"/>
	<path fill-rule="evenodd" clip-rule="evenodd" fill="#EF3E42" d="M44.7 26.2c0.2 0 0.3 0 0.5 0c0-0.3 0.1-0.6 0.1-1h-5.7l2.5-13.8 c-3.5-4.9-9.5-8-17.2-8c-7.3 0-13.7 2.9-18 7.9C3.4 15.7 1.5 21 1.5 27c0 5.2 2 10 5.3 13.3l0.1-0.1l13.6-13.7L5 26.2l30.5-15.1 l-8.3 9.6l9.9 0.9L25 45.8c4.5-0.5 8.4-2.1 11.7-4.7l2.8-14.9H44.7L44.7 26.2z"/>
	<polygon fill-rule="evenodd" clip-rule="evenodd" fill="#231F20" points="44.2,6.5 57,6.5 56,11.7 50.3,11.7 49.8,14 55.3,14 54.4,19.1 48.9,19.1 47.6,25.8 40.6,25.8 44.2,6.5"/>
	<path fill-rule="evenodd" clip-rule="evenodd" fill="#231F20" d="M64.5 14.8l0.6-3.3c0.1 0 0.2 0 0.3 0c1.8 0 2.6 0.4 2.6 1.4 c0 1.3-1 1.9-3 1.9C64.8 14.8 64.7 14.8 64.5 14.8L64.5 14.8z M55.4 25.8h7l1.1-5.9h2.8c5.6 0 8.7-2.7 8.7-7.1 c0-4.2-2.8-6.3-8.5-6.3H59L55.4 25.8L55.4 25.8z"/>
	<path fill-rule="evenodd" clip-rule="evenodd" fill="#231F20" d="M45 40.3l1.4-7.7c0.1 0 0.1 0 0.1 0c2.2 0 3.5 1.3 3.5 3.3 C50 38.6 48.2 40.3 45 40.3C45 40.3 45 40.3 45 40.3L45 40.3z M36.9 46.1H43c4.3 0 7.5-0.6 10.1-2.5c2.6-1.9 4-4.9 4-8.1 c0-3.5-1.7-6.2-4.7-7.7c-1.5-0.7-3.7-1-6.7-1h-5.2L36.9 46.1L36.9 46.1z"/>
	<polygon fill-rule="evenodd" clip-rule="evenodd" fill="#231F20" points="59.5,26.8 66.7,26.8 63.1,46.1 56,46.1 59.5,26.8"/>
	<polygon fill-rule="evenodd" clip-rule="evenodd" fill="#231F20" points="68.3,26.8 81.5,26.8 80.6,32 74.3,32 73.9,33.9 79.8,33.9 78.9,38.8 73,38.8 72.6,40.9 79.5,40.9 78.5,46.1 64.7,46.1 68.3,26.8"/>
	<path fill-rule="evenodd" clip-rule="evenodd" fill="#231F20" d="M83.1 38c1.6 1.9 3.4 2.9 5.1 2.9c0.8 0 1.3-0.3 1.3-0.8 c0-0.6-0.7-0.8-2-1.4c-3.2-1.3-4.7-3-4.7-5.7c0-3.9 3.1-6.8 8-6.8c2.8 0 5.1 0.8 7 2.4l-2.7 4.7c-1.5-1.4-2.8-2-3.9-2 c-0.7 0-1.1 0.4-1.1 0.8c0 0.8 0.9 1 2.5 1.7c2.8 1.3 4.1 2.7 4.1 5.5c0 3.9-3.4 7.1-8.3 7.1c-3 0-6-1.2-8.6-3.5L83.1 38L83.1 38z"/>
	<polygon fill-rule="evenodd" clip-rule="evenodd" fill="#231F20" points="99.8,26.8 113.1,26.8 112.2,32 105.9,32 105.5,33.9 111.4,33.9 110.5,38.8 104.6,38.8 104.2,40.9 111.1,40.9 110.1,46.1 96.3,46.1 99.8,26.8"/>
	<polygon fill-rule="evenodd" clip-rule="evenodd" fill="#231F20" points="115.2,26.8 122.4,26.8 119.9,40.1 125.8,40.1 124.7,46.1 111.6,46.1 115.2,26.8"/>
	<path fill-rule="evenodd" clip-rule="evenodd" fill="#231F20" d="M129.3 44.8V45h-1v1.1h-0.7V45h-1v-0.2H129.3L129.3 44.8z M130.9 44.8l0.8 0.9l0.8-0.9h1v1.3h-0.7v-1l-0.9 1h-0.3l-1-1v1H130v-1.3H130.9L130.9 44.8z"/>
</g>
</svg>
