<svg xmlns="http://www.w3.org/2000/svg" xmlns:xlink="http://www.w3.org/1999/xlink" version="1.1" id="Layer_1" x="0px" y="0px" viewBox="0 0 135 50" enable-background="new 0 0 135 50" xml:space="preserve">
<g>
	<polygon fill-rule="evenodd" clip-rule="evenodd" fill="#EC1C24" points="3.3,26.5 19.3,26.5 17.5,32.6 1.5,32.6 3.3,26.5"/>
	<polygon fill-rule="evenodd" clip-rule="evenodd" fill="#231F20" points="102.5,32.3 102.5,32 102.5,32.3"/>
	<path fill-rule="evenodd" clip-rule="evenodd" fill="#EC1C24" d="M132.1 17.2c0.2 0 0.5 0.1 0.7 0.2c0.2 0.1 0.4 0.3 0.5 0.5 c0.1 0.2 0.2 0.5 0.2 0.7c0 0.2-0.1 0.5-0.2 0.7c-0.1 0.2-0.3 0.4-0.5 0.5c-0.2 0.1-0.5 0.2-0.7 0.2c-0.2 0-0.5-0.1-0.7-0.2 c-0.2-0.1-0.4-0.3-0.5-0.5c-0.1-0.2-0.2-0.5-0.2-0.7c0-0.2 0.1-0.5 0.2-0.7c0.1-0.2 0.3-0.4 0.5-0.5 C131.6 17.3 131.9 17.2 132.1 17.2L132.1 17.2z M132.1 17.5c-0.2 0-0.4 0.1-0.6 0.2c-0.2 0.1-0.3 0.2-0.4 0.4 c-0.1 0.2-0.2 0.4-0.2 0.6c0 0.2 0.1 0.4 0.2 0.6c0.1 0.2 0.2 0.3 0.4 0.4c0.2 0.1 0.4 0.2 0.6 0.2c0.2 0 0.4-0.1 0.6-0.2 c0.2-0.1 0.3-0.2 0.4-0.4c0.1-0.2 0.2-0.4 0.2-0.6c0-0.2-0.1-0.4-0.2-0.6c-0.1-0.2-0.3-0.3-0.4-0.4 C132.5 17.5 132.3 17.5 132.1 17.5L132.1 17.5z M131.5 19.4v-1.5h0.5c0.2 0 0.3 0 0.4 0c0.1 0 0.1 0.1 0.2 0.1 c0 0.1 0.1 0.1 0.1 0.2c0 0.1 0 0.2-0.1 0.3c-0.1 0.1-0.2 0.1-0.3 0.1c0.1 0 0.1 0 0.1 0.1c0.1 0.1 0.1 0.2 0.2 0.3l0.2 0.3h-0.3 l-0.1-0.2c-0.1-0.2-0.2-0.3-0.3-0.4c0 0-0.1-0.1-0.2-0.1h-0.1v0.6H131.5L131.5 19.4z M131.7 18.6h0.3c0.1 0 0.2 0 0.3-0.1 c0.1 0 0.1-0.1 0.1-0.2c0 0 0-0.1 0-0.1c0 0-0.1-0.1-0.1-0.1c0 0-0.1 0-0.2 0h-0.3V18.6L131.7 18.6z"/>
	<path fill-rule="evenodd" clip-rule="evenodd" fill="#EC1C24" d="M79.2 18l-4.5 14.3h5.2l1.5-4.6h4.5c3.1 0 6.7-1.5 7.7-4.8 c0.2-0.9 0.2-1.7 0-2.4c-0.7-2-2.9-2.6-4.8-2.6H79.2L79.2 18z M74.3 27l1.2-3.7H68L66.7 27H74.3L74.3 27z M27.9 32.5l1.7-5.5h8.5 l1.4-3.8h-8.6l0.5-1.5h10.3l1.2-3.9H27.1l-4.7 14.7H27.9L27.9 32.5z M100.2 21.6h4c0.5 0 0.9 0.1 1.1 0.4c0.2 0.3 0.2 0.6 0.1 0.9 c-0.1 0.3-0.3 0.6-0.6 0.9c-0.3 0.3-0.7 0.4-1.2 0.4h-4.2L100.2 21.6L100.2 21.6z M96.3 18l-4.5 14.3H97l1.6-5.1c0.6 0 1.1 0 1.7 0 c1.5-0.1 3.7 0.2 3.2 2c-0.1 0.4-0.2 0.8-0.4 1.4c-0.2 0.5-0.3 1.1-0.4 1.8h5.3l0.1-0.5c-0.3-0.1-0.4-0.2-0.4-0.5 c0-0.3 0.1-0.6 0.3-1.1c0.2-0.6 0.3-1.1 0.5-1.5c0.1-0.5 0.2-0.9 0.2-1.2c-0.1-0.9-0.7-1.5-1.5-1.9c1.2-0.1 2.5-1.3 3.1-2.2 c0.4-0.6 0.7-1.2 0.8-1.8c0.2-0.6 0.1-1.2-0.1-1.8c-0.8-1.7-3.5-1.9-5.1-1.9H96.3L96.3 18z M72.5 32.5l1.4-4.1h-9.6l3.4-10.6h-5.4 l-4.7 14.6H72.5L72.5 32.5z M122.4 17.5c-2 0.1-3.8 0.5-5.4 1.2c-1.6 0.8-2.9 1.7-4 2.8c-1 1.1-1.8 2.4-2.2 3.7 c-0.4 1.3-0.5 2.5-0.1 3.6c0.3 1.1 1.1 2 2.2 2.8c1.1 0.7 2.7 1.1 4.8 1.1c1.5 0 2.9-0.2 4.2-0.6c1.3-0.4 2.4-1 3.4-1.7 c1-0.7 1.8-1.5 2.5-2.4c0.7-0.9 1.2-1.9 1.5-2.8c0.3-0.9 0.3-1.9 0.2-2.8c-0.1-0.9-0.5-1.7-1-2.5c-0.6-0.7-1.3-1.3-2.3-1.7 C125.2 17.8 123.9 17.5 122.4 17.5L122.4 17.5z M121.4 21.3c0.4 0 0.7 0.1 1.1 0.2c0.3 0.1 0.6 0.3 0.8 0.7 c0.2 0.3 0.3 0.7 0.4 1.2c0 0.5 0 1-0.3 1.7c-0.4 1.3-1 2.4-1.8 3.1c-0.8 0.7-1.7 1.1-2.7 1.1c-1 0-1.7-0.3-2.1-1 c-0.4-0.7-0.4-1.7 0.1-3c0.4-1.3 1.1-2.3 1.9-2.9C119.6 21.6 120.5 21.3 121.4 21.3L121.4 21.3z M55.8 32.5l1.4-3.9H46.3l0.6-1.7 h8.4l1.3-3.7h-8.5l0.6-1.5h9.8l1.4-3.7H44.3l-4.8 14.6H55.8L55.8 32.5z M83.3 21.4h4c0.5 0 0.9 0.2 1.1 0.5c0.2 0.3 0.2 0.7 0.1 1 c-0.2 0.8-1.1 1.3-1.8 1.3h-4.2L83.3 21.4L83.3 21.4z"/>
	<path fill-rule="evenodd" clip-rule="evenodd" fill="#231F20" d="M12.2 23.9l-0.7 2.2h0.8l0.2-0.7h0.7c0.5 0 1-0.2 1.2-0.7 c0-0.1 0-0.3 0-0.4c-0.1-0.3-0.4-0.4-0.7-0.4H12.2L12.2 23.9z M11.4 25.3l0.2-0.6h-1.1l-0.2 0.6H11.4L11.4 25.3z M4.4 26.1l0.3-0.8 h1.3l0.2-0.6H4.9l0.1-0.2h1.6l0.2-0.6H4.3l-0.7 2.2H4.4L4.4 26.1z M15.4 24.5H16c0.1 0 0.1 0 0.2 0.1c0 0 0 0.1 0 0.1 c0 0 0 0.1-0.1 0.1c-0.1 0-0.1 0.1-0.2 0.1h-0.6L15.4 24.5L15.4 24.5z M14.8 23.9l-0.7 2.2h0.8l0.2-0.8c0.1 0 0.2 0 0.3 0 c0.2 0 0.6 0 0.5 0.3c0 0.1 0 0.1-0.1 0.2c0 0.1 0 0.2-0.1 0.3h0.8l0-0.1c0 0-0.1 0-0.1-0.1c0 0 0-0.1 0-0.2c0-0.1 0.1-0.2 0.1-0.2 c0-0.1 0-0.1 0-0.2c0-0.1-0.1-0.2-0.2-0.3c0.2 0 0.4-0.2 0.5-0.3c0.1-0.1 0.1-0.2 0.1-0.3c0-0.1 0-0.2 0-0.3 c-0.1-0.3-0.5-0.3-0.8-0.3H14.8L14.8 23.9z M11.2 26.1l0.2-0.6H9.9l0.5-1.6H9.6l-0.7 2.2H11.2L11.2 26.1z M18.7 23.9 c-0.3 0-0.6 0.1-0.8 0.2c-0.2 0.1-0.4 0.3-0.6 0.4C17.2 24.7 17 24.8 17 25c-0.1 0.2-0.1 0.4 0 0.5c0 0.2 0.2 0.3 0.3 0.4 c0.2 0.1 0.4 0.2 0.7 0.2c0.2 0 0.4 0 0.6-0.1c0.2-0.1 0.4-0.1 0.5-0.3c0.1-0.1 0.3-0.2 0.4-0.4c0.1-0.1 0.2-0.3 0.2-0.4 c0-0.1 0-0.3 0-0.4c0-0.1-0.1-0.3-0.2-0.4c-0.1-0.1-0.2-0.2-0.4-0.3C19.2 23.9 19 23.9 18.7 23.9L18.7 23.9z M18.6 24.4 c0.1 0 0.1 0 0.2 0c0.1 0 0.1 0.1 0.1 0.1c0 0 0 0.1 0.1 0.2c0 0.1 0 0.2 0 0.3c-0.1 0.2-0.2 0.4-0.3 0.5c-0.1 0.1-0.3 0.2-0.4 0.2 c-0.2 0-0.3-0.1-0.3-0.2c-0.1-0.1-0.1-0.3 0-0.5c0.1-0.2 0.2-0.3 0.3-0.4C18.3 24.5 18.4 24.4 18.6 24.4L18.6 24.4z M8.6 26.1 l0.2-0.6H7.2l0.1-0.3h1.3l0.2-0.6H7.5l0.1-0.2h1.5l0.2-0.6H6.9l-0.7 2.2H8.6L8.6 26.1z M12.8 24.4h0.6c0.1 0 0.1 0 0.2 0.1 c0 0 0 0.1 0 0.2c0 0.1-0.2 0.2-0.3 0.2h-0.6L12.8 24.4L12.8 24.4z"/>
	<path fill-rule="evenodd" clip-rule="evenodd" fill="#231F20" d="M22.1 17.5L22 17.9H6l0.1-0.4H22.1L22.1 17.5z M21.9 18.2 l-0.1 0.4h-16l0.1-0.4H21.9L21.9 18.2z M21.6 19.1l-0.1 0.4h-16l0.1-0.4H21.6L21.6 19.1z M21.4 19.9l-0.1 0.5h-16l0.1-0.5H21.4 L21.4 19.9z M21.1 20.6L21 21.1H5l0.1-0.5H21.1L21.1 20.6z M20.9 21.4l-0.1 0.5h-16l0.1-0.5H20.9L20.9 21.4z M20.7 22.2l-0.1 0.4 h-16l0.1-0.4H20.7L20.7 22.2z M20.4 23.1l-0.1 0.3h-16l0.1-0.3H20.4L20.4 23.1z"/>
</g>
</svg>
