<svg xmlns="http://www.w3.org/2000/svg" xmlns:xlink="http://www.w3.org/1999/xlink" version="1.1" id="Layer_1" x="0px" y="0px" viewBox="0 0 135 50" enable-background="new 0 0 135 50" xml:space="preserve">
<g>
	<path fill="#0060A9" d="M15.3 28.6c-0.5 1.3-1.8 2.2-3.2 2.2c-1.7 0-3.1-1.2-3.4-2.8L2.5 7.6H9l3.1 11.8l3.3-11.8h6.1l3 11.6 l3.4-11.6h6.2L27.9 28c-0.3 1.6-1.6 2.8-3.3 2.9c-1.5 0-2.7-0.8-3.3-2.1L18.4 19L15.3 28.6L15.3 28.6z"/>
	<path fill="#EF3E33" d="M45.6 10.5C45 8.4 43 6.9 40.7 6.9c-2.3 0-4.2 1.5-4.9 3.6l-6.9 19.8h7.6l4-15.4l4.3 15.4h7.5L45.6 10.5 L45.6 10.5z"/>
	<path fill="#0060A9" d="M70.2 30H58.5c-4.7-1.2-7.9-5.8-7.9-11.1c0-5.9 4.1-11.2 9.8-11.6h9.2V13h-8.7c-2.8 0.2-4.9 2.9-4.9 5.8 c0 2.6 1.6 4.9 4 5.5h4.6l0.2-0.1l0.1-0.3v-2.5h-5.7V16h7.6c1.9 0 3.5 1.6 3.5 3.5L70.2 30L70.2 30z"/>
	<path fill="#0060A9" d="M83.5 28c0.5 1.2 1.8 2.1 3.2 2.1c1.9 0 3.4-1.5 3.4-3.5V7.3h-5.9v11L77.8 7.2h-5.5V30h5.4V18.4L83.5 28 L83.5 28z"/>
	<path fill="#0060A9" d="M95.9 29.9c-1.9 0-3.5-1.4-3.5-3.3V10.7c0-1.9 1.5-3.5 3.5-3.5h11.6v5.5h-9.1L98 12.8l-0.2 0.3v2.8L98 16 h9.3v5.1H98l-0.2 0.1l-0.1 0.3v2.7h9.6v5.7L95.9 29.9L95.9 29.9z"/>
	<path fill="#0060A9" d="M127.7 10.4c0-1.9-1.6-3.4-3.5-3.4H113c-1.9 0-3.5 1.5-3.5 3.5v19.4h5.5V14l0.1-0.6h6.5l0.5 0.1l0.1 0.3 v1.9l-0.1 0.5l-0.4 0.2h-5.3v5.4h4.9l0.6 0.3l0.2 0.8V30h5.5v-9.4c0 0-0.2-0.9-0.6-1.3c-0.3-0.2-0.7-0.5-0.7-0.5s0.6-0.2 0.9-0.5 c0.5-0.5 0.5-1.9 0.5-1.9V10.4L127.7 10.4z"/>
	<polygon fill="#0060A9" points="3.7,43.1 127.6,43.1 127.6,32.5 3.7,32.5"/>
	<polygon fill="#FFFFFF" points="12.3,35.6 12.3,40.5 15.6,40.5 15.6,41.5 10.9,41.5 10.9,35.6"/>
	<polygon fill="#FFFFFF" points="25.8,35.6 27.2,35.6 27.2,41.5 25.8,41.5"/>
	<path fill="#FFFFFF" d="M41.6 38.3h2.7v3.2h-0.8l-0.2-0.7c-0.3 0.4-0.9 1-2.2 0.9c-1.2-0.1-1.7-0.5-2-0.8c-1.6-1.3-1.4-4.4 0.9-5.2 c0.3-0.1 0.7-0.2 1.3-0.2s1.5 0.1 2.2 0.7c0.8 0.7 0.7 1.2 0.8 1.3H43c-0.2-0.7-0.9-1-1.7-1c-0.5 0-0.8 0.1-1.2 0.3 c-0.9 0.6-0.9 2.1-0.5 2.8c0.3 0.5 0.8 1 1.6 1.1c0.5 0 1.1-0.1 1.5-0.5s0.4-0.7 0.4-0.8h-1.6v-1.1H41.6z"/>
	<polygon fill="#FFFFFF" points="55.4,35.6 56.9,35.6 56.9,37.8 59.9,37.8 59.9,35.6 61.4,35.6 61.4,41.5 59.9,41.5 59.9,38.8 56.9,38.8 56.9,41.5 55.4,41.5"/>
	<polygon fill="#FFFFFF" points="76.4,35.6 76.4,36.6 74.4,36.6 74.4,41.5 73,41.5 73,36.6 70.9,36.6 70.9,35.6"/>
	<polygon fill="#FFFFFF" points="86.2,35.6 87.6,35.6 87.6,41.5 86.2,41.5"/>
	<polygon fill="#FFFFFF" points="100.4,35.6 103.1,39.7 103.1,35.6 104.5,35.6 104.5,41.5 103.1,41.5 100.4,37.4 100.4,41.5 99,41.5 99,35.6"/>
	<path fill="#FFFFFF" d="M118.7 38.3h2.7v3.2h-0.8l-0.2-0.7c-0.3 0.4-0.9 1-2.2 0.9c-1.2-0.1-1.7-0.5-2-0.8 c-1.6-1.3-1.4-4.4 0.9-5.2c0.3-0.1 0.7-0.2 1.3-0.2s1.5 0.1 2.2 0.7c0.8 0.7 0.7 1.2 0.8 1.3h-1.3c-0.2-0.7-0.9-1-1.7-1 c-0.5 0-0.8 0.1-1.2 0.3c-0.9 0.6-0.9 2.1-0.5 2.8c0.3 0.5 0.8 1 1.6 1.1c0.5 0 1.2-0.1 1.6-0.5c0.4-0.4 0.4-0.7 0.4-0.8h-1.6V38.3 L118.7 38.3z"/>
	<path fill="#231F20" d="M130.7 11.3c-0.9 0-1.6-0.7-1.6-1.6c0-0.9 0.7-1.6 1.6-1.6c0.9 0 1.6 0.7 1.6 1.6S131.6 11.3 130.7 11.3 L130.7 11.3z M130.7 11.6c1 0 1.8-0.8 1.8-1.8S131.7 8 130.7 8s-1.8 0.8-1.8 1.8C128.8 10.8 129.7 11.6 130.7 11.6L130.7 11.6z M131 9.8c0.4 0 0.6-0.2 0.6-0.6c0-0.2-0.1-0.4-0.2-0.4c-0.2-0.1-0.3-0.1-0.5-0.1H130v2h0.2V9.8h0.5l0.6 0.9h0.3L131 9.8L131 9.8z M130.2 9.6V8.9h0.6c0.3 0 0.5 0 0.5 0.4c0 0.4-0.4 0.4-0.7 0.4h-0.4V9.6z"/>
</g>
</svg>
