<svg xmlns="http://www.w3.org/2000/svg" xmlns:xlink="http://www.w3.org/1999/xlink" version="1.1" id="Layer_1" x="0px" y="0px" viewBox="0 0 135 50" enable-background="new 0 0 135 50" xml:space="preserve">
<g>
	<path fill-rule="evenodd" clip-rule="evenodd" fill="#0060A9" d="M11.1 7.1l-1.2 9.5c0.9-1.2 7.3-9.6 7.3-9.6L23 7.1l-1 9.6 c1.1-1.2 6.9-9.6 6.9-9.6h8.1L21.5 27.2h-7.1L16.3 16L8.2 27.2H1.7l2-20.1H11.1L11.1 7.1z"/>
	<path fill-rule="evenodd" clip-rule="evenodd" fill="#0060A9" d="M69.1 15.9c-0.6 3.5-2.4 7.5-3.6 8.7c-3.1 3.1-6.8 2.8-8.4 2.9 C49.4 27.7 47 24 48 17.5C49 11 54.1 6.8 60.4 6.8c3.5 0 9.2 0.8 8.8 7h-7c-0.2-1.7-1-2.2-2.2-2.3c-3.5-0.2-4.5 3.8-4.9 6.2 c-0.4 2.2-0.7 5.1 2.3 5.1c2.2 0 3.2-1.5 3.8-2.7l-3.7 0l0.8-4.2L69.1 15.9L69.1 15.9z"/>
	<path fill-rule="evenodd" clip-rule="evenodd" fill="#0060A9" d="M72.4 7.1h6.1l4.8 10.8c0.6-2.4 2.1-10.8 2.1-10.8H92l-4.4 20.1 h-6.4l-4.5-10.5l-2 10.5h-6.7L72.4 7.1L72.4 7.1z"/>
	<polygon fill-rule="evenodd" clip-rule="evenodd" fill="#0060A9" points="94.2,7.1 109.9,7.1 108.8,11.8 100.1,11.8 99.4,15.1 108.1,15.1 107.1,19.3 98.6,19.3 97.9,22.4 106.6,22.4 105.4,27.2 89.7,27.2 94.2,7.1"/>
	<path fill-rule="evenodd" clip-rule="evenodd" fill="#0060A9" d="M111.7 7.1h8c4.5 0 9.2 0.4 9.2 5.7c0 4-4.7 5.4-4.7 5.4 c0.3 0.3 3.3 9 3.3 9H120l-3.7-9.4l-2.1 9.4h-6.6L111.7 7.1L111.7 7.1L111.7 7.1z M116.6 16.8h0.7c1.8 0 3.5 0.1 3.9-2.5 c0.4-2.6-1.2-2.5-3-2.5h-0.8L116.6 16.8L116.6 16.8z"/>
	<polygon fill-rule="evenodd" clip-rule="evenodd" fill="#EE3E42" points="25.1,27.2 40.3,6.9 47.7,27.2 25.1,27.2"/>
	<path fill-rule="evenodd" clip-rule="evenodd" fill="#0060A9" d="M4.3 29.7h6.4c3.2 0 3.6 2 3.4 3.4c-0.4 1.9-1.6 2.4-2.2 2.7 c1.5 0.6 1.6 1.9 1.4 3.2c-0.2 1.1-0.9 2-1.7 2.7C10.6 42.5 9.8 43 7.1 43H1.5L4.3 29.7L4.3 29.7L4.3 29.7z M4.6 40.7H8 c1.3 0 2.2-0.6 2.5-1.9c0.2-1.2-0.7-1.6-1.6-1.6H5.4L4.6 40.7L4.6 40.7L4.6 40.7z M5.9 34.9h3.2c1.1 0 2-0.4 2.3-1.5 c0.2-1.1-0.5-1.4-1.7-1.4H6.5L5.9 34.9L5.9 34.9z"/>
	<path fill-rule="evenodd" clip-rule="evenodd" fill="#0060A9" d="M16.1 33.2h2.5l-0.4 1.7h0c0.7-1 1.5-2 3.1-2c0.2 0 0.3 0 0.5 0 l-0.6 2.6c-0.2 0-0.5 0-0.7 0c-2 0-2.6 1.3-2.9 2.3L16.6 43H14L16.1 33.2L16.1 33.2z"/>
	<path fill-rule="evenodd" clip-rule="evenodd" fill="#0060A9" d="M29 41.1c-0.2 1.2 0 1.4 0.2 1.5L29.2 43h-2.8 c-0.1-0.5-0.1-0.6 0-1.2c-0.7 0.6-1.7 1.4-3.5 1.4c-1.5 0-2.8-0.8-2.4-2.9c0.4-1.9 1.8-2.9 3.5-3.1l2.4-0.3 c0.4-0.1 0.9-0.2 1.1-0.8c0.2-1.1-0.8-1.1-1.5-1.1c-1.3 0-1.7 0.8-1.9 1.4h-2.5c0.9-3 3.1-3.4 5.1-3.4c1.4 0 3.8 0.4 3.3 2.8 L29 41.1L29 41.1L29 41.1z M27.1 38.2c-0.3 0.2-0.8 0.4-1.9 0.5c-1 0.2-1.8 0.4-2.1 1.5c-0.2 0.9 0.5 1.2 0.9 1.2 c1.1 0 2.5-0.7 2.7-1.9L27.1 38.2L27.1 38.2z"/>
	<polygon fill-rule="evenodd" clip-rule="evenodd" fill="#0060A9" points="33,43 30.4,43 33.2,29.7 35.8,29.7 34.3,36.9 38.3,33.2 41.5,33.2 37.2,37 39.5,43 36.4,43 35,38.8 33.7,39.9 33,43"/>
	<path fill-rule="evenodd" clip-rule="evenodd" fill="#0060A9" d="M49.1 40.1c-1.2 2.4-3.3 3.1-5 3.1c-2.8 0-4.6-1.3-3.7-5.4 c0.3-1.2 1.5-5 5.8-5c1.9 0 4.4 0.9 3.5 5.4l-0.1 0.5h-6.7c-0.1 0.7-0.3 2.4 1.8 2.4c0.7 0 1.5-0.4 1.9-1.1H49.1L49.1 40.1 L49.1 40.1z M47.2 37.1c0.2-1.6-0.7-2.1-1.6-2.1c-1.2 0-2 0.8-2.4 2.1H47.2L47.2 37.1z"/>
	<path fill-rule="evenodd" clip-rule="evenodd" fill="#0060A9" d="M57.3 43h-2.8l2.8-13.2h6c2.6 0 3.8 1.6 3.2 4.2 c-0.3 1.2-1.6 4.2-5.1 4.2h-3.2L57.3 43L57.3 43L57.3 43z M61.4 35.9c2.1 0 2.4-1.5 2.5-2.1c0.3-1.3-0.3-1.8-2-1.8h-2.2l-0.8 3.9 H61.4L61.4 35.9z"/>
	<path fill-rule="evenodd" clip-rule="evenodd" fill="#0060A9" d="M68.1 33.2h2.5l-0.4 1.7h0c0.7-1 1.5-2 3.1-2c0.2 0 0.3 0 0.5 0 l-0.6 2.6c-0.2 0-0.5 0-0.7 0c-2 0-2.6 1.3-2.9 2.3L68.6 43H66L68.1 33.2L68.1 33.2z"/>
	<path fill-rule="evenodd" clip-rule="evenodd" fill="#0060A9" d="M77.1 43.2c-2.6 0-4.7-1.6-3.9-5.2c0.8-3.5 3.5-5.2 6.1-5.2 c2.6 0 4.7 1.6 3.9 5.2C82.4 41.6 79.7 43.2 77.1 43.2L77.1 43.2L77.1 43.2z M78.8 35.1c-2 0-2.7 1.7-3 3c-0.3 1.3-0.3 3 1.7 3 c2 0 2.7-1.7 3-3C80.8 36.8 80.8 35.1 78.8 35.1L78.8 35.1z"/>
	<path fill-rule="evenodd" clip-rule="evenodd" fill="#0060A9" d="M92.3 43h-2.5l0.3-1.2h0c-0.9 1.1-2.1 1.5-3.2 1.5 c-2.9 0-3.6-2.6-3-5.3c0.7-3.4 3-5.1 5.1-5.1c1.7 0 2.2 0.9 2.5 1.5h0l1-4.7h2.6L92.3 43L92.3 43L92.3 43z M88 41.1 c1.6 0 2.6-1.4 2.9-2.8c0.3-1.6 0.2-3.2-1.5-3.2c-1.6 0-2.5 1.5-2.8 3C86.2 39.3 86.3 41.1 88 41.1L88 41.1z"/>
	<path fill-rule="evenodd" clip-rule="evenodd" fill="#0060A9" d="M102.9 43h-2.5l0.3-1.4h0c-0.8 1.1-2 1.6-3.3 1.6 c-1.9 0-3.1-1.1-2.6-3.6l1.4-6.5h2.6l-1.3 6.1c-0.3 1.5 0.5 1.8 1.3 1.8c0.8 0 2.1-0.5 2.5-2.2l1.2-5.7h2.6L102.9 43L102.9 43z"/>
	<path fill-rule="evenodd" clip-rule="evenodd" fill="#0060A9" d="M114 39.4c-0.3 1-1.7 3.8-5.3 3.8c-3.7 0-3.9-2.8-3.5-4.9 c0.7-3.2 2.5-5.4 5.9-5.4c1.5 0 3.9 0.7 3.5 3.8H112c0-0.6-0.2-1.7-1.4-1.6c-1.6 0-2.4 1.6-2.6 2.8c-0.2 1.1-0.6 3.2 1.3 3.2 c1.3 0 2-1.3 2.1-1.7H114L114 39.4z"/>
	<path fill-rule="evenodd" clip-rule="evenodd" fill="#0060A9" d="M119.5 33.2h1.6l-0.4 1.8h-1.6l-1.1 5.3c-0.1 0.6-0.2 0.8 0.9 0.8 c0.2 0 0.4 0 0.5 0l-0.4 2c-0.4 0-0.8 0-1.2 0h-0.3c-2.2 0-2.5-0.8-2.2-2.1l1.3-6h-1.3l0.4-1.8h1.3l0.6-2.7h2.6L119.5 33.2 L119.5 33.2z"/>
	<path fill-rule="evenodd" clip-rule="evenodd" fill="#0060A9" d="M127.1 36.2c0-0.6-0.1-1.3-1.5-1.3c-1.4 0-1.7 0.5-1.8 1 c-0.3 1.5 6 0.4 5.3 4c-0.6 2.9-3.5 3.4-5 3.4c-2.2 0-4.5-0.8-4-3.4h2.7c-0.2 0.8 0.2 1.4 1.8 1.4c1.3 0 1.8-0.6 1.9-1 c0.3-1.6-6-0.4-5.2-4.1c0.3-1.4 1.6-3.3 4.7-3.3c1.9 0 4.1 0.5 3.7 3.2H127.1L127.1 36.2z"/>
	<path fill-rule="evenodd" clip-rule="evenodd" fill="#0060A9" d="M132.2 7.6c0.3 0.2 0.5 0.4 0.7 0.7c0.2 0.3 0.3 0.6 0.3 0.9 c0 0.3-0.1 0.6-0.2 0.9c-0.2 0.3-0.4 0.5-0.7 0.7c-0.3 0.2-0.6 0.3-0.9 0.3c-0.3 0-0.6-0.1-0.9-0.3c-0.3-0.2-0.5-0.4-0.7-0.7 c-0.2-0.3-0.3-0.6-0.3-0.9c0-0.3 0.1-0.6 0.3-0.9c0.2-0.3 0.4-0.5 0.7-0.7c0.3-0.2 0.6-0.2 0.9-0.2C131.6 7.4 131.9 7.4 132.2 7.6 L132.2 7.6L132.2 7.6z M130.1 7.3c-0.4 0.2-0.6 0.5-0.8 0.8c-0.2 0.4-0.3 0.7-0.3 1.1c0 0.4 0.1 0.8 0.3 1.1 c0.2 0.4 0.5 0.6 0.8 0.8c0.4 0.2 0.7 0.3 1.1 0.3c0.4 0 0.8-0.1 1.1-0.3c0.4-0.2 0.6-0.5 0.8-0.8c0.2-0.4 0.3-0.7 0.3-1.1 c0-0.4-0.1-0.8-0.3-1.1c-0.2-0.4-0.5-0.6-0.8-0.8C132 7.1 131.6 7 131.2 7C130.9 7 130.5 7.1 130.1 7.3L130.1 7.3L130.1 7.3z M130.6 9.5h0.2c0.1 0 0.2 0 0.3 0.1c0.1 0.1 0.2 0.3 0.4 0.6l0.2 0.4h0.5L132 10c-0.1-0.2-0.3-0.4-0.4-0.5c-0.1 0-0.1-0.1-0.2-0.1 c0.2 0 0.4-0.1 0.5-0.2c0.1-0.1 0.2-0.3 0.2-0.5c0-0.1 0-0.2-0.1-0.4c-0.1-0.1-0.2-0.2-0.3-0.2c-0.1 0-0.3-0.1-0.6-0.1h-0.8v2.4 h0.4V9.5L130.6 9.5L130.6 9.5z M131.1 8.4c0.2 0 0.3 0 0.4 0c0.1 0 0.1 0.1 0.2 0.1c0 0.1 0.1 0.1 0.1 0.2c0 0.1 0 0.2-0.1 0.3 c-0.1 0.1-0.2 0.1-0.5 0.1h-0.5V8.4H131.1L131.1 8.4z"/>
</g>
</svg>
