<svg xmlns="http://www.w3.org/2000/svg" xmlns:xlink="http://www.w3.org/1999/xlink" version="1.1" id="Layer_1" x="0px" y="0px" viewBox="0 0 320 40" enable-background="new 0 0 320 40" xml:space="preserve">
<g>
	<g>
		<g>
			<g>
				<g>
					<g>
						<g>
							<g>
								<g>
									<g>
										<path fill="#B81237" d="M203.4 2.8h7.9l5.8 10.7l5.8-10.7h7.9v16.7h-5v-12h0l-6.7 12h-3.8l-6.7-12h0v12h-5V2.8z"/>
										<path fill="#B81237" d="M232.2 8.6c0-4.9 2.7-6 7.4-6h8.2c4.6 0 7.4 1.2 7.4 6v5c0 4.9-2.7 6-7.4 6h-8.2 c-4.6 0-7.4-1.2-7.4-6V8.6z M237.4 12c0 2.4 0.5 3.3 2.9 3.3h6.5c2.4 0 2.9-0.9 2.9-3.3v-1.8c0-2.1-0.5-3.3-3.2-3.3h-6 c-2.7 0-3.2 1.3-3.2 3.3V12z"/>
										<path fill="#B81237" d="M256.8 8.6c0-4.9 2.7-6 7.4-6h7.7c5.8 0 6.6 2.1 6.6 5.3v0.5h-5c0-1.7-0.9-1.9-2.6-1.9h-5.6 c-2.6 0-3.2 0.6-3.2 3.5v2.1c0 2.9 0.7 3.5 3.2 3.5h5.5c1.3 0 2.7-0.2 2.7-1.8v-0.5h-6.4V9.8h11.5v4.7c0 4.8-2.5 5-8.2 5 h-6.2c-4.6 0-7.4-1.2-7.4-6V8.6z"/>
										<path fill="#B81237" d="M280.1 2.6h5.1v9.6c0 2.1 0.8 2.9 2.9 2.9h5.1c2.1 0 2.9-0.8 2.9-2.9V2.6h5.1v10.7 c0 4.1-2.1 6.1-6.8 6.1h-7.3c-4.7 0-6.8-2-6.8-6.1V2.6z"/>
										<g>
											<path fill="#B81237" d="M44.3 2.8h17.4v4H49.4v3.1h11.7v3.9H49.4v5.7h-5.1V2.8z"/>
											<path fill="#B81237" d="M63.5 2.8h18.3v3.9H68.6v2.7H81v3.5H68.6v2.7H82v4H63.5V2.8z"/>
											<path fill="#B81237" d="M84 2.8h15.4c5.1 0 6.9 1.7 6.9 5.8v5.1c0 4.1-1.8 5.8-6.9 5.8H84V2.8z M89.1 15.2h9.1 c2.2 0 3-0.6 3-3V10c0-2.4-0.9-3-3-3h-9.1V15.2z"/>
											<path fill="#B81237" d="M107.6 2.8h18.2v3.9h-13.1v2.7h12.4v3.5h-12.4v2.7h13.4v4h-18.5V2.8z"/>
											<path fill="#B81237" d="M128 2.8h15.4c3.9 0 5 2 5 5v1.1c0 2.2-0.5 3.5-2.9 4.1v0c1.5 0.3 2.8 0.9 2.8 3.7v2.8h-5.1v-2 c0-1.8-0.5-2.3-2.1-2.3h-8v4.3H128V2.8z M133.1 11h8.5c1.4 0 1.9-0.6 1.9-1.8V8.7c0-1.5-0.7-1.8-2.4-1.8h-8V11z"/>
											<path fill="#B81237" d="M157.9 2.8h6.7l9.2 16.7h-5.7l-1.6-2.9h-10.4l-1.5 2.9h-5.7L157.9 2.8z M158 13h6.5l-3.3-6.3 L158 13z"/>
											<path fill="#B81237" d="M174.9 2.8h5.1v12.4h11.5v4.3h-16.6V2.8z"/>
										</g>
										<path fill="#B81237" d="M303.4 2.8h5.1v12.4H320v4.3h-16.6V2.8z"/>
									</g>
									<g>
										<path fill="#B81237" d="M44.5 25h5.9l4.3 8l4.3-8h5.9v12.4h-3.7v-8.9h0l-5 8.9h-2.9l-5-8.9h0v8.9h-3.7V25z"/>
										<path fill="#B81237" d="M66.4 29.4c0-3.6 2-4.5 5.5-4.5H78c3.4 0 5.5 0.9 5.5 4.5v3.7c0 3.6-2 4.5-5.5 4.5h-6.1 c-3.4 0-5.5-0.9-5.5-4.5V29.4z M70.3 31.9c0 1.8 0.4 2.5 2.2 2.5h4.9c1.8 0 2.2-0.7 2.2-2.5v-1.3c0-1.5-0.4-2.5-2.4-2.5 h-4.5c-2 0-2.4 0.9-2.4 2.5V31.9z"/>
										<path fill="#B81237" d="M84.4 25h14.5v3.1h-5.4v9.3h-3.8v-9.3h-5.4V25z"/>
										<path fill="#B81237" d="M99.9 29.4c0-3.6 2-4.5 5.5-4.5h6.1c3.4 0 5.5 0.9 5.5 4.5v3.7c0 3.6-2 4.5-5.5 4.5h-6.1 c-3.4 0-5.5-0.9-5.5-4.5V29.4z M103.8 31.9c0 1.8 0.4 2.5 2.2 2.5h4.9c1.8 0 2.2-0.7 2.2-2.5v-1.3c0-1.5-0.4-2.5-2.4-2.5 h-4.5c-2 0-2.4 0.9-2.4 2.5V31.9z"/>
										<path fill="#B81237" d="M118.5 25H130c2.9 0 3.7 1.5 3.7 3.7v0.8c0 1.7-0.4 2.6-2.1 3.1v0c1.1 0.2 2.1 0.7 2.1 2.7v2.1 h-3.8V36c0-1.3-0.4-1.7-1.6-1.7h-6v3.2h-3.8V25z M122.3 31.2h6.3c1 0 1.4-0.4 1.4-1.3v-0.4c0-1.1-0.5-1.3-1.8-1.3h-6V31.2 z"/>
										<path fill="#B81237" d="M135.4 25h10.4c3.6 0 4.5 1.8 4.5 4.3v1.1c0 1.9-0.8 4-3.5 4h-7.6v3.1h-3.8V25z M139.2 31.3h5.9 c0.9 0 1.2-0.6 1.2-1.3v-0.5c0-0.8-0.4-1.3-1.6-1.3h-5.6V31.3z"/>
										<path fill="#B81237" d="M156.3 25h5l6.8 12.4h-4.2l-1.2-2.2h-7.7l-1.1 2.2h-4.3L156.3 25z M156.3 32.6h4.9l-2.5-4.7 L156.3 32.6z"/>
										<path fill="#B81237" d="M169 25h11.5c2.9 0 3.7 1.5 3.7 3.7v0.8c0 1.7-0.4 2.6-2.1 3.1v0c1.1 0.2 2.1 0.7 2.1 2.7v2.1 h-3.8V36c0-1.3-0.4-1.7-1.6-1.7h-6v3.2H169V25z M172.8 31.2h6.3c1 0 1.4-0.4 1.4-1.3v-0.4c0-1.1-0.5-1.3-1.8-1.3h-6V31.2z "/>
										<path fill="#B81237" d="M185.4 25h14.5v3.1h-5.4v9.3h-3.8v-9.3h-5.4V25z"/>
										<path fill="#B81237" d="M200.9 33.4h3.8c0 1.3 0.5 1.4 1.6 1.4h4.7c0.8 0 1.6-0.1 1.6-1c0-1.1-0.4-1.2-5.4-1.2 c-5.7 0-6.4-0.7-6.4-3.7c0-2.3 0.2-4 5-4h5.3c4.4 0 4.8 1.5 4.8 3.7V29h-3.8c0-0.9-0.1-1.3-1.9-1.3h-4.2 c-0.9 0-1.4 0.3-1.4 1c0 1.1 0.5 1.1 4.6 1.1c5.9 0 7.3 0.3 7.3 4c0 3.4-1.1 3.9-6.2 3.9h-4.6c-3.5 0-4.9-0.7-4.9-3.4 V33.4z"/>
									</g>
									<rect x="192.1" y="8.8" fill="#B81237" width="7.6" height="4"/>
								</g>
							</g>
						</g>
					</g>
				</g>
			</g>
		</g>
	</g>
	<g>
		<path fill="#B81237" d="M25.4 14.8c-0.4-1-0.8-1.9-1.3-2.9c-0.2-0.3-0.6-0.6-1.1-0.6c-3.7 0-7.4 0-11.1 0c-0.4 0-0.9 0.2-1.1 0.6 c-0.5 1-0.9 1.9-1.3 2.9c-0.2 0.4 0.1 0.6 0.5 0.6c5-0.7 9.9-0.7 14.8 0C25.3 15.4 25.5 15.2 25.4 14.8z"/>
		<path fill="#B81237" d="M11.2 21.1l-4.1-1.7c-0.5-0.2-1-0.1-1 0.4L5.9 21c-0.1 0.4 0.4 0.9 0.9 1.1l4.1 0.9c0.6 0.1 1.1 0 1.1-0.3 C12 22.3 11.7 21.3 11.2 21.1z"/>
		<path fill="#B81237" d="M27.8 19.4l-4.1 1.7c-0.5 0.2-0.9 1.3-0.8 1.5c0 0.3 0.5 0.4 1.1 0.3L28 22c0.6-0.1 1-0.6 0.9-1.1 l-0.1-1.2C28.7 19.3 28.3 19.1 27.8 19.4z"/>
		<path fill="#B81237" d="M17.4 2.4C7.8 2.4 0 10.2 0 19.8s7.8 17.4 17.4 17.4c9.6 0 17.4-7.8 17.4-17.4S27 2.4 17.4 2.4z M30.4 24.9V26c0 0.8-0.7 1.5-1.5 1.5h-1.7c-0.8 0-1.5-0.7-1.5-1.5v-1.1c-4.8 0-11.9 0-16.7 0V26c0 0.8-0.7 1.5-1.5 1.5H5.9 c-0.8 0-1.5-0.7-1.5-1.5v-1.1c-0.2-1.5-0.4-2.9-0.5-4.4c-0.2-1.9 1.5-4 3.2-4.6c0.1 0 0.2-0.1 0.2-0.1l-0.5-0.5c0 0 0 0-0.1 0H4.3 c-0.2 0-0.3-0.2-0.3-0.4v-1.1c0-0.2 0.2-0.4 0.3-0.4h2.5c0.2 0 0.3 0.2 0.3 0.4v1l0.5 0.5C8 14.5 8.4 13.7 8.8 13 c0.5-0.9 1.3-1.8 2.4-2.2c4.3-1.1 8.2-1.1 12.5 0c1 0.4 1.9 1.3 2.4 2.2c0.4 0.8 0.8 1.5 1.1 2.3l0.5-0.5v-1 c0-0.2 0.2-0.4 0.3-0.4h2.5c0.2 0 0.3 0.2 0.3 0.4v1.1c0 0.2-0.2 0.4-0.3 0.4H28c0 0 0 0-0.1 0l-0.5 0.5c0.1 0 0.2 0.1 0.2 0.1 c1.7 0.6 3.4 2.7 3.2 4.6C30.7 22 30.5 23.4 30.4 24.9L30.4 24.9z"/>
	</g>
</g>
</svg>
