<svg xmlns="http://www.w3.org/2000/svg" xmlns:xlink="http://www.w3.org/1999/xlink" version="1.1" id="Layer_1" x="0px" y="0px" viewBox="0 0 135 50" enable-background="new 0 0 135 50" xml:space="preserve">
<g>
	<path fill="#0060A9" d="M130.5 46.7c0.1 0 0.3-0.1 0.4-0.1c0.1-0.1 0.1-0.3 0.1-0.4c0-0.3 0-0.3-0.1-0.4c-0.1-0.1-0.3-0.1-0.4-0.1 v-0.3c0.3 0 0.6 0.1 0.7 0.3c0.1 0.1 0.3 0.4 0.3 0.7c0 0.3 0 0.4-0.1 0.6c-0.1 0.1-0.3 0.3-0.4 0.3c0.1 0 0.3 0.1 0.4 0.1 c0.1 0.1 0.1 0.3 0.1 0.6c0 0.1 0 0.1 0 0.3c0 0.4 0.1 0.6 0.1 0.7h-0.4c0-0.1-0.1-0.3-0.1-0.6c0-0.1 0-0.3 0-0.3 c0-0.3-0.1-0.4-0.1-0.4c-0.1-0.1-0.3-0.1-0.4-0.1L130.5 46.7L130.5 46.7z M129.9 46.7h0.4h0.1V47h-0.1h-0.4v1.6h-0.4V45h1l0 0v0.3 c0 0 0 0-0.1 0h-0.6v1.5H129.9z"/>
	<path fill="#0060A9" d="M130.5 44.5c1.3 0 2.3 1 2.3 2.3c0 1.3-1 2.3-2.3 2.3v0.6c1.6 0 2.9-1.3 2.9-2.9s-1.3-2.9-2.9-2.9V44.5z M130.5 49.4c-1.3 0-2.3-1-2.3-2.3c0-1.3 1-2.3 2.3-2.3v-0.4c-1.6 0-2.9 1.3-2.9 2.9s1.3 2.9 2.9 2.9V49.4z"/>
</g>
<g>
	<path fill="none" d="M47.5 22.2c-2.3 0-4.4 5.6-4.4 12.3s1.9 12.3 4.4 12.3c2.3 0 4.4-5.6 4.4-12.3S49.8 22.2 47.5 22.2z"/>
	<polygon fill="none" points="22,30.2 27.1,30.2 32.3,30.2 32.3,17.2 27.1,23.8"/>
	<path fill="none" d="M84.2 30.5c0-3.9-1.2-8.2-4.4-8.2c-0.1 0-0.1 0-0.3 0c-3.1 0.3-4.7 4.4-4.7 8.2h4.7H84.2z"/>
	<path fill="#0060A9" d="M49.4 20c-0.7 0-1.3 0-1.9 0.1c-1.5 0.3-2.8 0.7-4.1 1.5V0.1L27.1 20.3L3.5 49.7L16.9 50 c-5.6-0.9-5.3-7.2-3.1-9.9l6.4-7.5l6.7-0.1l5.1-0.1v12.6c0 2.3 2.6 4.7 4.8 4.7h10.2h1.9c7.3 0 13.5-7 13.5-15.1 C62.7 26.4 56.7 20 49.4 20z M32.3 30.2h-5.1H22l5.1-6.6l5.1-6.6V30.2z M47.5 46.7c-2.3 0-4.4-5.6-4.4-12.3s1.9-12.3 4.4-12.3 c2.3 0 4.4 5.6 4.4 12.3S49.8 46.7 47.5 46.7z"/>
	<path fill="#0060A9" d="M102.7 39.4l6.4 10.5h16.1c-4.7-1.3-6.6-5-8.8-8.3L110 31.4l6.4-6.1c1.9-1.9 4.5-3.4 7.6-4.8h-15.5 c3.7 2 5.1 4.2 2.8 6.3l-2.6 2.5l-5.4-8.6H88.7c4.7 2.8 6.3 6.1 8.5 9.8l4.4 7.2l-6.9 6.1c-1.8 1.3-4.5 3.4-7.7 3.9 c-1 0.1-2 0.3-2.9 0.3c-1.8 0-3.2-0.4-4.4-1.3c-3.4-2.3-5-7.3-5-11.3c0-0.6 0-1.2 0.1-1.9h19.3c-0.7-7.3-7-13.2-14.5-13.5 c-0.1 0-0.3 0-0.4 0c-8.3 0-15.1 6.7-15.1 15.1S70.7 50 79 50h24.3c-4.5-1.3-5.7-6.1-3.2-8.2L102.7 39.4z M79.6 22.3 c0.1 0 0.1 0 0.3 0c3.4 0 4.4 4.2 4.4 8.2H75C75 26.7 76.4 22.5 79.6 22.3z"/>
</g>
</svg>
